normalP112_grf.mot
version=1
nRows=10
nColumns=19
inDegrees=yes
endheader
time	1_ground_force_vx	1_ground_force_vy	1_ground_force_vz	1_ground_force_px	1_ground_force_py	1_ground_force_pz	1_ground_torque_x	1_ground_torque_y	1_ground_torque_z	2_ground_force_vx	2_ground_force_vy	2_ground_force_vz	2_ground_force_px	2_ground_force_py	2_ground_force_pz	2_ground_torque_x	2_ground_torque_y	2_ground_torque_z
            2.080000	           -0.067389	           -0.004864	           -0.004962	            0.411670	            0.003421	           -0.342221	           -0.041712	           -0.008570	            0.008996	          -19.125138	          458.837918	          -32.537774	            0.898836	            0.000913	           -0.143206	            0.002463	           -0.059096	            0.004191
            2.081000	           -0.112421	            0.394571	           -0.025947	            0.411670	            0.003421	           -0.342221	           -0.091815	           -0.003677	           -0.053568	          -18.895697	          458.436686	          -32.577594	            0.899057	            0.000911	           -0.142859	            0.002212	           -0.053658	            0.003813
            2.082000	           -0.075007	           -0.006184	            0.002678	            0.411670	            0.003421	           -0.342221	            0.058719	           -0.012056	            0.092378	          -18.558588	          458.275038	          -32.592462	            0.899688	            0.000910	           -0.142819	            0.002678	           -0.066118	            0.004702
            2.083000	           -0.066903	            0.233237	            0.026923	            0.411670	            0.003421	           -0.342221	            0.042132	           -0.012070	            0.030015	          -18.321293	          457.873724	          -32.701260	            0.900004	            0.000907	           -0.142399	            0.001658	           -0.041442	            0.002960
            2.084000	           -0.084316	           -0.722046	           -0.008774	            0.411670	            0.003421	           -0.342221	           -0.158954	           -0.001217	            0.029639	          -17.967828	          458.272029	          -32.751524	            0.900323	            0.000906	           -0.142378	            0.002186	           -0.055750	            0.003984
            2.085000	           -0.074564	            0.233435	           -0.018994	            0.411670	            0.003421	           -0.342221	            0.008749	            0.007201	            0.030014	          -17.692517	          457.871906	          -32.760279	            0.900549	            0.000906	           -0.142398	            0.001468	           -0.037999	            0.002719
            2.086000	           -0.105424	            0.074832	           -0.027578	            0.411670	            0.003421	           -0.342221	            0.042105	           -0.001058	           -0.011384	          -17.447837	          457.390635	          -32.808004	            0.900638	            0.000903	           -0.141922	            0.000654	           -0.017134	            0.001229
            2.087000	           -0.105061	            0.315275	           -0.003328	            0.411670	            0.003421	           -0.342221	           -0.075166	            0.011172	           -0.074203	          -17.132870	          457.709342	          -32.850905	            0.901005	            0.000903	           -0.141995	            0.000429	           -0.011461	            0.000823
            2.088000	           -0.074134	            0.394299	           -0.018143	            0.411670	            0.003421	           -0.342221	           -0.091941	            0.001221	           -0.012103	          -16.856854	          457.707675	          -32.865107	            0.901369	            0.000902	           -0.141847	            0.000273	           -0.007417	            0.000533
            2.089000	           -0.105578	           -0.003802	           -0.035700	            0.411670	            0.003421	           -0.342221	           -0.108721	           -0.010566	           -0.032801	          -16.603547	          457.866351	          -32.894062	            0.901822	            0.000901	           -0.141881	            0.000671	           -0.018512	            0.001330
